<svg width="1155" height="110" viewBox="0 0 1155 110" fill="none" xmlns="http://www.w3.org/2000/svg">
<rect width="120" height="110" fill="#EF3C24"/>
<path d="M154.57 24.09C154.57 23.82 154.75 23.64 155.02 23.64H181.3C191.2 23.64 199.66 32.19 199.66 42.9C199.66 53.61 191.2 61.8 181.3 61.8H163.57C163.3 61.8 163.12 61.98 163.12 62.25V86.55C163.12 86.82 162.94 87 162.67 87H155.02C154.75 87 154.57 86.82 154.57 86.55V24.09ZM180.22 31.29H163.57C163.3 31.29 163.12 31.47 163.12 31.74V53.7C163.12 53.97 163.3 54.15 163.57 54.15H180.22C185.89 54.15 191.11 49.11 191.11 42.9C191.11 36.69 185.89 31.29 180.22 31.29ZM246.082 87H239.332C239.062 87 238.972 86.82 238.882 86.55L237.982 82.5C237.802 81.96 237.172 82.14 236.992 82.41C235.372 84.75 230.962 87.9 225.202 87.9C210.352 87.9 205.582 78.36 205.582 66.66V41.91C205.582 41.64 205.762 41.46 206.032 41.46H213.682C213.952 41.46 214.132 41.64 214.132 41.91V66.66C214.132 73.5 217.192 80.25 226.102 80.25C233.662 80.25 237.982 73.68 237.982 66.66V41.91C237.982 41.64 238.162 41.46 238.432 41.46H246.082C246.352 41.46 246.532 41.64 246.532 41.91V86.55C246.532 86.82 246.352 87 246.082 87ZM265.305 87H258.555C258.285 87 258.105 86.82 258.105 86.55V24.09C258.105 23.82 258.285 23.64 258.555 23.64H266.205C266.475 23.64 266.655 23.82 266.655 24.09V45.51C266.655 45.87 267.105 46.23 267.555 45.69C268.635 44.43 274.125 40.56 280.425 40.56C293.565 40.56 301.845 50.19 301.845 64.23C301.845 78.27 293.565 87.9 280.425 87.9C275.925 87.9 269.985 85.2 267.555 82.77C267.285 82.5 266.835 82.41 266.655 82.95L265.755 86.55C265.665 86.82 265.575 87 265.305 87ZM293.295 64.23C293.295 54.87 288.165 48.21 279.525 48.21C271.335 48.21 266.655 54.87 266.655 64.23C266.655 73.59 271.335 80.25 279.525 80.25C288.165 80.25 293.295 73.59 293.295 64.23ZM321.576 24.09V86.55C321.576 86.82 321.396 87 321.126 87H313.476C313.206 87 313.026 86.82 313.026 86.55V24.09C313.026 23.82 313.206 23.64 313.476 23.64H321.126C321.396 23.64 321.576 23.82 321.576 24.09ZM343.647 41.91V86.55C343.647 86.82 343.467 87 343.197 87H335.547C335.277 87 335.097 86.82 335.097 86.55V41.91C335.097 41.64 335.277 41.46 335.547 41.46H343.197C343.467 41.46 343.647 41.64 343.647 41.91ZM344.547 24.09V33.54C344.547 33.81 344.367 33.99 344.097 33.99H334.647C334.377 33.99 334.197 33.81 334.197 33.54V24.09C334.197 23.82 334.377 23.64 334.647 23.64H344.097C344.367 23.64 344.547 23.82 344.547 24.09ZM396.957 56.85H388.947C388.677 56.85 388.497 56.67 388.407 56.4C386.427 51.09 382.107 48.21 375.987 48.21C367.437 48.21 362.307 54.87 362.307 64.23C362.307 73.59 367.437 80.25 375.987 80.25C382.107 80.25 386.427 77.37 388.407 72.06C388.497 71.79 388.677 71.61 388.947 71.61H396.957C397.227 71.61 397.497 71.7 397.407 72.06C394.887 82.05 387.417 87.9 375.987 87.9C361.857 87.9 353.757 78.27 353.757 64.23C353.757 50.1 361.857 40.56 375.987 40.56C387.417 40.56 394.977 46.5 397.407 56.4C397.497 56.76 397.227 56.85 396.957 56.85ZM441.972 23.64H453.042C453.312 23.64 453.492 23.82 453.582 24.09L474.552 86.55C474.642 86.82 474.372 87 474.102 87H465.642C465.372 87 465.282 86.82 465.192 86.55L461.052 73.68C460.962 73.32 460.692 73.23 460.422 73.23H434.322C434.052 73.23 433.872 73.41 433.782 73.68L429.552 86.55C429.462 86.82 429.372 87 429.102 87H420.732C420.462 87 420.102 86.91 420.192 86.55L441.432 24.09C441.522 23.82 441.702 23.64 441.972 23.64ZM436.752 66.03H458.082C458.352 66.03 458.532 65.85 458.442 65.58L447.912 32.64C447.732 32.1 447.192 32.1 447.012 32.64L436.392 65.58C436.302 65.85 436.482 66.03 436.752 66.03ZM484.149 23.64H491.799C492.069 23.64 492.249 23.82 492.249 24.09V86.55C492.249 86.82 492.069 87 491.799 87H484.149C483.879 87 483.699 86.82 483.699 86.55V24.09C483.699 23.82 483.879 23.64 484.149 23.64ZM523.436 23.64H531.086C531.356 23.64 531.536 23.82 531.536 24.09V86.55C531.536 86.82 531.356 87 531.086 87H523.436C523.166 87 522.986 86.82 522.986 86.55V24.09C522.986 23.82 523.166 23.64 523.436 23.64ZM544.436 41.46H551.186C551.456 41.46 551.546 41.64 551.636 41.91L552.536 45.96C552.716 46.5 553.346 46.32 553.526 46.05C555.416 43.44 559.286 40.56 565.316 40.56C578.366 40.56 584.936 50.1 584.936 61.8V86.55C584.936 86.82 584.756 87 584.486 87H576.836C576.566 87 576.386 86.82 576.386 86.55V61.8C576.386 54.96 573.326 48.21 564.416 48.21C556.856 48.21 552.536 54.78 552.536 61.8V86.55C552.536 86.82 552.356 87 552.086 87H544.436C544.166 87 543.986 86.82 543.986 86.55V41.91C543.986 41.64 544.166 41.46 544.436 41.46ZM619.078 24.09V30.84C619.078 31.11 618.898 31.29 618.628 31.29H612.688C609.988 31.29 608.458 33 608.458 35.79V41.01C608.458 41.28 608.638 41.46 608.908 41.46H618.628C618.898 41.46 619.078 41.64 619.078 41.91V47.76C619.078 48.03 618.898 48.21 618.628 48.21H608.908C608.638 48.21 608.458 48.39 608.458 48.66V86.55C608.458 86.82 608.278 87 608.008 87H600.358C600.088 87 599.908 86.82 599.908 86.55V48.66C599.908 48.39 599.728 48.21 599.458 48.21H591.448C591.178 48.21 590.998 48.03 590.998 47.76V41.91C590.998 41.64 591.178 41.46 591.448 41.46H599.458C599.728 41.46 599.908 41.28 599.908 41.01V34.26C599.908 26.88 604.228 23.46 612.598 23.64H618.628C618.898 23.64 619.078 23.82 619.078 24.09ZM632.395 67.29C632.125 67.29 631.945 67.47 631.945 67.74C631.945 74.31 636.715 80.25 644.725 80.25C651.115 80.25 654.265 77.55 656.155 73.95C656.335 73.59 656.515 73.5 656.785 73.5H664.795C665.065 73.5 665.335 73.59 665.245 73.95C662.905 82.77 654.895 87.9 644.725 87.9C631.225 87.9 622.855 78.27 622.855 64.23C622.855 50.1 630.775 40.56 644.725 40.56C658.765 40.56 666.685 50.19 666.685 64.23C666.685 65.13 666.595 66.12 666.415 66.84C666.325 67.11 666.235 67.29 665.965 67.29H632.395ZM657.325 60.09C657.325 54.96 653.635 48.21 644.725 48.21C635.995 48.21 631.945 55.86 631.945 60.09C631.945 60.36 632.215 60.54 632.395 60.54H656.875C657.145 60.54 657.325 60.36 657.325 60.09ZM701.2 48.21H696.61C689.05 48.21 684.73 54.78 684.73 61.8V86.55C684.73 86.82 684.55 87 684.28 87H676.63C676.36 87 676.18 86.82 676.18 86.55V41.91C676.18 41.64 676.36 41.46 676.63 41.46H683.38C683.65 41.46 683.74 41.64 683.83 41.91L684.73 45.96C684.91 46.5 685.45 46.32 685.72 46.05C688.78 42.99 692.11 40.56 696.61 40.56H701.2C701.47 40.56 701.65 40.74 701.65 41.01V47.76C701.65 48.03 701.47 48.21 701.2 48.21ZM713.518 67.29C713.248 67.29 713.068 67.47 713.068 67.74C713.068 74.31 717.838 80.25 725.848 80.25C732.238 80.25 735.388 77.55 737.278 73.95C737.458 73.59 737.638 73.5 737.908 73.5H745.918C746.188 73.5 746.458 73.59 746.368 73.95C744.028 82.77 736.018 87.9 725.848 87.9C712.348 87.9 703.978 78.27 703.978 64.23C703.978 50.1 711.898 40.56 725.848 40.56C739.888 40.56 747.808 50.19 747.808 64.23C747.808 65.13 747.718 66.12 747.538 66.84C747.448 67.11 747.358 67.29 747.088 67.29H713.518ZM738.448 60.09C738.448 54.96 734.758 48.21 725.848 48.21C717.118 48.21 713.068 55.86 713.068 60.09C713.068 60.36 713.338 60.54 713.518 60.54H737.998C738.268 60.54 738.448 60.36 738.448 60.09ZM755.725 41.46H762.475C762.745 41.46 762.835 41.64 762.925 41.91L763.825 45.96C764.005 46.5 764.635 46.32 764.815 46.05C766.705 43.44 770.575 40.56 776.605 40.56C789.655 40.56 796.225 50.1 796.225 61.8V86.55C796.225 86.82 796.045 87 795.775 87H788.125C787.855 87 787.675 86.82 787.675 86.55V61.8C787.675 54.96 784.615 48.21 775.705 48.21C768.145 48.21 763.825 54.78 763.825 61.8V86.55C763.825 86.82 763.645 87 763.375 87H755.725C755.455 87 755.275 86.82 755.275 86.55V41.91C755.275 41.64 755.455 41.46 755.725 41.46ZM848.715 56.85H840.705C840.435 56.85 840.255 56.67 840.165 56.4C838.185 51.09 833.865 48.21 827.745 48.21C819.195 48.21 814.065 54.87 814.065 64.23C814.065 73.59 819.195 80.25 827.745 80.25C833.865 80.25 838.185 77.37 840.165 72.06C840.255 71.79 840.435 71.61 840.705 71.61H848.715C848.985 71.61 849.255 71.7 849.165 72.06C846.645 82.05 839.175 87.9 827.745 87.9C813.615 87.9 805.515 78.27 805.515 64.23C805.515 50.1 813.615 40.56 827.745 40.56C839.175 40.56 846.735 46.5 849.165 56.4C849.255 56.76 848.985 56.85 848.715 56.85ZM865.217 67.29C864.947 67.29 864.767 67.47 864.767 67.74C864.767 74.31 869.537 80.25 877.547 80.25C883.937 80.25 887.087 77.55 888.977 73.95C889.157 73.59 889.337 73.5 889.607 73.5H897.617C897.887 73.5 898.157 73.59 898.067 73.95C895.727 82.77 887.717 87.9 877.547 87.9C864.047 87.9 855.677 78.27 855.677 64.23C855.677 50.1 863.597 40.56 877.547 40.56C891.587 40.56 899.507 50.19 899.507 64.23C899.507 65.13 899.417 66.12 899.237 66.84C899.147 67.11 899.057 67.29 898.787 67.29H865.217ZM890.147 60.09C890.147 54.96 886.457 48.21 877.547 48.21C868.817 48.21 864.767 55.86 864.767 60.09C864.767 60.36 865.037 60.54 865.217 60.54H889.697C889.967 60.54 890.147 60.36 890.147 60.09ZM933.791 24.09V65.49C933.791 73.14 940.091 80.25 947.831 80.25C955.481 80.25 961.691 73.14 961.691 65.49V24.09C961.691 23.82 961.871 23.64 962.141 23.64H969.791C970.061 23.64 970.241 23.82 970.241 24.09V65.49C970.241 78 960.341 87.9 947.831 87.9C935.321 87.9 925.241 78 925.241 65.49V24.09C925.241 23.82 925.421 23.64 925.691 23.64H933.341C933.611 23.64 933.791 23.82 933.791 24.09ZM1005.71 79.8V86.55C1005.71 86.82 1005.53 87 1005.26 87H998.329C990.859 87.18 986.539 83.76 986.539 76.38V48.66C986.539 48.39 986.359 48.21 986.089 48.21H978.079C977.809 48.21 977.629 48.03 977.629 47.76V41.91C977.629 41.64 977.809 41.46 978.079 41.46H986.089C986.359 41.46 986.539 41.28 986.539 41.01V28.86C986.539 28.59 986.719 28.41 986.989 28.41H994.639C994.909 28.41 995.089 28.59 995.089 28.86V41.01C995.089 41.28 995.269 41.46 995.539 41.46H1005.26C1005.53 41.46 1005.71 41.64 1005.71 41.91V47.76C1005.71 48.03 1005.53 48.21 1005.26 48.21H995.539C995.269 48.21 995.089 48.39 995.089 48.66V74.85C995.089 77.64 996.349 79.35 999.949 79.35H1005.26C1005.53 79.35 1005.71 79.53 1005.71 79.8ZM1023.48 41.91V86.55C1023.48 86.82 1023.3 87 1023.03 87H1015.38C1015.11 87 1014.93 86.82 1014.93 86.55V41.91C1014.93 41.64 1015.11 41.46 1015.38 41.46H1023.03C1023.3 41.46 1023.48 41.64 1023.48 41.91ZM1024.38 24.09V33.54C1024.38 33.81 1024.2 33.99 1023.93 33.99H1014.48C1014.21 33.99 1014.03 33.81 1014.03 33.54V24.09C1014.03 23.82 1014.21 23.64 1014.48 23.64H1023.93C1024.2 23.64 1024.38 23.82 1024.38 24.09ZM1045.18 24.09V86.55C1045.18 86.82 1045 87 1044.73 87H1037.08C1036.81 87 1036.63 86.82 1036.63 86.55V24.09C1036.63 23.82 1036.81 23.64 1037.08 23.64H1044.73C1045 23.64 1045.18 23.82 1045.18 24.09ZM1067.25 41.91V86.55C1067.25 86.82 1067.07 87 1066.8 87H1059.15C1058.88 87 1058.7 86.82 1058.7 86.55V41.91C1058.7 41.64 1058.88 41.46 1059.15 41.46H1066.8C1067.07 41.46 1067.25 41.64 1067.25 41.91ZM1068.15 24.09V33.54C1068.15 33.81 1067.97 33.99 1067.7 33.99H1058.25C1057.98 33.99 1057.8 33.81 1057.8 33.54V24.09C1057.8 23.82 1057.98 23.64 1058.25 23.64H1067.7C1067.97 23.64 1068.15 23.82 1068.15 24.09ZM1103.62 79.8V86.55C1103.62 86.82 1103.44 87 1103.17 87H1096.24C1088.77 87.18 1084.45 83.76 1084.45 76.38V48.66C1084.45 48.39 1084.27 48.21 1084 48.21H1075.99C1075.72 48.21 1075.54 48.03 1075.54 47.76V41.91C1075.54 41.64 1075.72 41.46 1075.99 41.46H1084C1084.27 41.46 1084.45 41.28 1084.45 41.01V28.86C1084.45 28.59 1084.63 28.41 1084.9 28.41H1092.55C1092.82 28.41 1093 28.59 1093 28.86V41.01C1093 41.28 1093.18 41.46 1093.45 41.46H1103.17C1103.44 41.46 1103.62 41.64 1103.62 41.91V47.76C1103.62 48.03 1103.44 48.21 1103.17 48.21H1093.45C1093.18 48.21 1093 48.39 1093 48.66V74.85C1093 77.64 1094.26 79.35 1097.86 79.35H1103.17C1103.44 79.35 1103.62 79.53 1103.62 79.8ZM1109.6 97.62C1109.6 97.35 1109.78 97.17 1110.05 97.17H1120.22C1125.53 97.17 1127.15 93.75 1125.53 88.98L1124.72 86.55L1109.51 41.91C1109.42 41.55 1109.78 41.46 1110.05 41.46H1118.24C1118.51 41.46 1118.6 41.64 1118.69 41.91L1130.48 78.09C1130.66 78.54 1131.2 78.54 1131.38 78.09L1143.26 41.91C1143.35 41.64 1143.44 41.46 1143.71 41.46H1151.9C1152.17 41.46 1152.44 41.64 1152.35 41.91L1136.96 87L1134.35 94.83C1131.74 102.12 1129.04 104.82 1121.75 104.82H1110.05C1109.78 104.82 1109.6 104.64 1109.6 104.37V97.62Z" fill="#EF3C24"/>
<path d="M28 70.6977V58.907L77.7485 44.8992L28 30.6899V19L92 38.5504V51.2481L28 70.6977ZM28 87V76.4186H92V87H28Z" fill="white"/>
</svg>
